<svg fill="none" xmlns="http://www.w3.org/2000/svg" viewBox="0 4.12 393 199.88">
<mask id="mask0_49_111" style="mask-type:luminance" maskUnits="userSpaceOnUse" x="0" y="8" width="393" height="118">
<path d="M393 8.34161H0V125.124H393V8.34161Z" fill="white"/>
</mask>
<g mask="url(#mask0_49_111)">
<path d="M10.4613 109.48L158.256 8.41666L324.828 119.601L140.369 125.049" fill="#4C5E66"/>
<path d="M167.411 43.6445H188.238L186.636 69.8271L210.666 65.5426L240.752 94.2082L273.776 85.5251L158.255 8.41666L167.411 43.6445Z" fill="#829399"/>
<path d="M196.98 99.9823L279.569 46.0235L390.268 109.516" fill="#4C5E66"/>
<path d="M279.569 46.0247L280.354 76.968H301.179L320.732 116.188L390.268 109.516L279.569 46.0247Z" fill="#829399"/>
<path d="M0 125.049H393V113.593C393 107.828 377.444 103.075 358.036 103.029C357.916 103.029 357.796 103.027 357.676 103.027C345.38 103.027 334.311 104.546 326.364 106.971C318.994 100.207 297.295 95.3579 271.888 95.6056C242.69 95.8911 219.036 103.02 218.46 111.698C218.452 111.81 218.467 111.92 218.467 112.029C217.915 111.939 179.907 105.85 152.336 114.041C145.871 115.933 143.148 118.032 142.739 120.134C136.276 116.502 123.355 114.041 108.609 114.041C102.953 114.041 97.603 114.403 92.7564 115.062C87.606 108.849 68.7183 104.289 46.2981 104.289C45.7615 104.289 45.2249 104.291 44.696 104.296C20.0814 104.536 0.680841 110.635 0.336199 117.952L0 125.049Z" fill="#8BC923"/>
<path d="M152.337 120.11C147.058 121.652 144.27 123.338 143.213 125.049H393V119.663C393 113.895 377.444 109.144 358.036 109.099C357.916 109.097 357.796 109.097 357.676 109.097C345.38 109.097 334.311 110.613 326.364 113.038C318.994 106.274 297.295 101.425 271.888 101.675C242.69 101.961 219.036 109.09 218.46 117.768C218.452 117.88 218.467 117.987 218.467 118.099C217.915 118.008 179.907 111.917 152.337 120.11Z" fill="#7EB515"/>
<path d="M0.288635 125.049H140.369C133.408 122.059 121.73 120.11 108.609 120.11C102.954 120.11 97.6038 120.472 92.7572 121.131C87.6068 114.919 68.7191 110.358 46.2989 110.358C45.7623 110.358 45.2257 110.36 44.6967 110.365C20.0822 110.606 0.681635 116.704 0.336994 124.021L0.288635 125.049Z" fill="#7EB515"/>
<path d="M102.802 46.3364L111.293 63.2196L147.338 49.6521L187.348 58.2163L219.285 49.1545L158.255 8.41666L102.802 46.3364Z" fill="#BFC5D2"/>
<path d="M216.289 87.3648L266.279 81.4263L306.267 87.177L321.55 81.7833L348.104 85.3347H348.112L279.569 46.0247L216.289 87.3648Z" fill="#BFC5D2"/>
<path d="M167.411 43.6445H188.238L187.348 58.2163L219.285 49.1545L158.255 8.41666L167.411 43.6445Z" fill="#F1F5FE"/>
<path d="M279.569 46.0247L280.354 76.968H301.179L306.267 87.177L321.55 81.7833L348.104 85.3346L279.569 46.0247Z" fill="#F1F5FE"/>
</g>
<path d="M393 149.575C364.925 149.575 364.925 138.804 336.853 138.804C308.781 138.804 308.781 149.575 280.709 149.575C252.636 149.575 252.636 138.804 224.564 138.804C196.492 138.804 196.493 149.575 168.422 149.575C140.353 149.575 140.353 138.804 112.283 138.804C84.2126 138.804 84.2126 149.575 56.1415 149.575C28.0704 149.575 28.0704 138.804 0 138.804V165.975C28.0711 165.975 28.0711 176.747 56.1415 176.747C84.2119 176.747 84.2119 165.975 112.283 165.975C140.353 165.975 140.353 176.747 168.422 176.747C196.493 176.747 196.494 165.975 224.564 165.975C252.636 165.975 252.636 176.747 280.709 176.747C308.781 176.747 308.781 165.975 336.853 165.975C364.925 165.975 364.928 176.747 393 176.747" fill="#0ea5e9"/>
<path d="M393 122.404C364.925 122.404 364.925 111.633 336.853 111.633C308.781 111.633 308.781 122.404 280.709 122.404C252.636 122.404 252.636 111.633 224.564 111.633C196.492 111.633 196.493 122.404 168.422 122.404C140.353 122.404 140.353 111.633 112.283 111.633C84.2126 111.633 84.2126 122.404 56.1415 122.404C28.0704 122.404 28.0704 111.633 0 111.633V138.804C28.0711 138.804 28.0711 149.575 56.1415 149.575C84.2119 149.575 84.2119 138.804 112.283 138.804C140.353 138.804 140.353 149.575 168.422 149.575C196.493 149.575 196.494 138.804 224.564 138.804C252.636 138.804 252.636 149.575 280.709 149.575C308.781 149.575 308.781 138.804 336.853 138.804C364.925 138.804 364.928 149.575 393 149.575" fill="#0284c7"/>
<path d="M393 176.747C364.925 176.747 364.925 165.976 336.853 165.976C308.781 165.976 308.781 176.747 280.709 176.747C252.636 176.747 252.636 165.976 224.564 165.976C196.492 165.976 196.493 176.747 168.422 176.747C140.353 176.747 140.353 165.976 112.283 165.976C84.2126 165.976 84.2126 176.747 56.1415 176.747C28.0704 176.747 28.0704 165.975 0 165.975V193.147C28.0711 193.147 28.0711 203.918 56.1415 203.918C84.2119 203.918 84.2119 193.147 112.283 193.147C140.353 193.147 140.353 203.918 168.422 203.918C196.493 203.918 196.494 193.147 224.564 193.147C252.636 193.147 252.636 203.918 280.709 203.918C308.781 203.918 308.781 193.147 336.853 193.147C364.925 193.147 364.928 203.918 393 203.918" fill="#38bdf8"/>
<path d="M393 193H0V204H393V193Z" fill="#38bdf8"/>
<mask id="mask1_49_111" style="mask-type:luminance" maskUnits="userSpaceOnUse" x="32" y="35" width="132" height="123">
<path d="M163.026 35.7498H32.1964V157.776H163.026V35.7498Z" fill="white"/>
</mask>
<g mask="url(#mask1_49_111)">
<path d="M105.047 124.135C83.746 71.0991 105.017 38.874 105.017 38.874C57.599 62.237 45.8599 122.823 45.8599 122.823C45.8599 122.823 71.9795 110.496 105.047 124.135Z" fill="#F2F2F2"/>
<path d="M104.439 123.031C122.044 113.963 141.213 118.735 141.213 118.735C146.381 62.6386 104.439 38.874 104.439 38.874C104.439 38.874 125.08 83.4492 104.439 123.031Z" fill="#CDD6E0"/>
<path d="M104.439 134.062C103.199 134.062 102.196 133.124 102.196 131.969V38.0022C102.196 36.8456 103.198 35.9075 104.439 35.9075C105.676 35.9075 106.679 36.8456 106.679 38.0022V131.97C106.679 133.124 105.676 134.062 104.439 134.062Z" fill="#ACB3BA"/>
<path d="M132.36 157.618H62.8649L32.1964 129.016H163.026L132.36 157.618Z" fill="#FFD15C"/>
<path d="M53.5706 148.949C58.7657 153.792 62.8649 157.618 62.8649 157.618H132.36C132.36 157.618 136.459 153.792 141.654 148.949H53.5706Z" fill="#F8B64C"/>
</g>
<path d="M232.573 19.1939C234.666 19.1939 236.362 17.6116 236.362 15.6598C236.362 14.0925 235.267 12.7656 233.753 12.3027C233.858 11.9784 233.916 11.6349 233.916 11.2787C233.916 9.32682 232.219 7.74458 230.127 7.74458C230.101 7.74458 230.077 7.74768 230.051 7.74816C229.654 5.68757 227.726 4.12285 225.402 4.12285C222.966 4.12285 220.963 5.84086 220.703 8.04822C220.139 7.78138 219.502 7.62773 218.826 7.62773C216.526 7.62773 214.661 9.36693 214.661 11.5123C214.661 11.5453 214.666 11.5772 214.666 11.61C212.518 11.7145 210.81 13.3673 210.81 15.3969C210.81 17.4939 212.632 19.1939 214.88 19.1939H232.573Z" fill="#E1E6E9"/>
<path d="M232.573 20.1869C234.666 20.1869 236.362 18.6047 236.362 16.6528C236.362 15.0856 235.267 13.7586 233.753 13.2957C233.858 12.9715 233.916 12.628 233.916 12.2718C233.916 10.3199 232.219 8.73763 230.127 8.73763C230.101 8.73763 230.077 8.74075 230.051 8.7412C229.654 6.68061 227.726 5.11589 225.402 5.11589C222.966 5.11589 220.963 6.8339 220.703 9.04126C220.139 8.77442 219.502 8.62077 218.826 8.62077C216.526 8.62077 214.661 10.36 214.661 12.5053C214.661 12.5383 214.666 12.5703 214.666 12.6031C212.518 12.7075 210.81 14.3603 210.81 16.39C210.81 18.487 212.632 20.1869 214.88 20.1869H232.573Z" fill="#EBF0F3"/>
<path d="M361.509 28.4334C364.647 28.4334 367.192 26.0599 367.192 23.1322C367.192 20.7813 365.549 18.7909 363.277 18.0965C363.436 17.6102 363.522 17.0949 363.522 16.5606C363.522 13.6327 360.977 11.2594 357.84 11.2594C357.801 11.2594 357.763 11.2641 357.725 11.2647C357.129 8.17387 354.237 5.82678 350.751 5.82678C347.097 5.82678 344.092 8.40379 343.704 11.7148C342.858 11.3146 341.902 11.0841 340.888 11.0841C337.438 11.0841 334.64 13.6929 334.64 16.911C334.64 16.9604 334.648 17.0084 334.648 17.0575C331.426 17.2142 328.863 19.6934 328.863 22.7379C328.863 25.8833 331.597 28.4334 334.97 28.4334H361.509Z" fill="#E1E6E9"/>
<path d="M361.509 29.923C364.647 29.923 367.192 27.5495 367.192 24.6218C367.192 22.2708 365.549 20.2804 363.277 19.5861C363.436 19.0997 363.522 18.5845 363.522 18.0501C363.522 15.1223 360.977 12.749 357.84 12.749C357.801 12.749 357.763 12.7536 357.725 12.7543C357.129 9.66342 354.237 7.31633 350.751 7.31633C347.097 7.31633 344.092 9.89336 343.704 13.2044C342.858 12.8042 341.902 12.5737 340.888 12.5737C337.438 12.5737 334.64 15.1825 334.64 18.4005C334.64 18.45 334.648 18.4979 334.648 18.5471C331.426 18.7038 328.863 21.183 328.863 24.2274C328.863 27.3729 331.597 29.923 334.97 29.923H361.509Z" fill="#EBF0F3"/>
</svg>
